<?xml version="1.0" encoding="UTF-8" standalone="no"?>
<svg width="30px" height="24px" viewBox="0 0 30 24" version="1.1" xmlns="http://www.w3.org/2000/svg" xmlns:xlink="http://www.w3.org/1999/xlink">
    <!-- Generator: Sketch 3.6.1 (26313) - http://www.bohemiancoding.com/sketch -->
    <title>ic_email_black_24px</title>
    <desc>Created with Sketch.</desc>
    <defs></defs>
    <g id="Buttons-&amp;-components" stroke="none" stroke-width="1" fill="none" fill-rule="evenodd">
        <g id="ic_email_black_24px" transform="translate(-2.000000, -5.000000)">
            <g id="Group">
                <path d="M28.8888889,5.72429065 L5.77777778,5.72429065 C4.18888889,5.72429065 2.90333333,7.01225605 2.90333333,8.58643598 L2.88888889,25.7593079 C2.88888889,27.3334879 4.18888889,28.6214533 5.77777778,28.6214533 L28.8888889,28.6214533 C30.4777778,28.6214533 31.7777778,27.3334879 31.7777778,25.7593079 L31.7777778,8.58643598 C31.7777778,7.01225605 30.4777778,5.72429065 28.8888889,5.72429065 L28.8888889,5.72429065 Z M28.8888889,11.4485813 L17.3333333,18.6039446 L5.77777778,11.4485813 L5.77777778,8.58643598 L17.3333333,15.7417993 L28.8888889,8.58643598 L28.8888889,11.4485813 L28.8888889,11.4485813 Z" id="Shape" fill="#FFFFFF"></path>
                <path d="M0,0 L34.6666667,0 L34.6666667,34.3457439 L0,34.3457439 L0,0 Z" id="Shape"></path>
            </g>
        </g>
    </g>
</svg>