<?xml version="1.0" encoding="UTF-8" standalone="no"?>
<svg width="18px" height="20px" viewBox="0 0 18 20" version="1.1" xmlns="http://www.w3.org/2000/svg" xmlns:xlink="http://www.w3.org/1999/xlink">
    <!-- Generator: Sketch 3.6.1 (26313) - http://www.bohemiancoding.com/sketch -->
    <title>Group 15</title>
    <desc>Created with Sketch.</desc>
    <defs></defs>
    <g id="Popup" stroke="none" stroke-width="1" fill="none" fill-rule="evenodd">
        <g id="3" transform="translate(-715.000000, -396.000000)">
            <g id="Group-6" transform="translate(569.000000, 384.000000)">
                <g id="Group-17" transform="translate(130.000000, 0.000000)">
                    <g id="Group-15" transform="translate(12.000000, 5.000000)">
                        <g id="ic_person_black_24px-(3)" transform="translate(0.000000, 7.000000)">
                            <g id="Group">
                                <path d="M12,12 C14.21,12 16,10.21 16,8 C16,5.79 14.21,4 12,4 C9.79,4 8,5.79 8,8 C8,10.21 9.79,12 12,12 L12,12 Z M12,14 C9.33,14 4,15.34 4,18 L4,20 L20,20 L20,18 C20,15.34 14.67,14 12,14 L12,14 Z" id="Shape" fill="#FFFFFF"></path>
                                <path d="M0,0 L24,0 L24,24 L0,24 L0,0 Z" id="Shape"></path>
                            </g>
                        </g>
                        <g id="ic_info_black_24px" transform="translate(9.000000, 0.000000)">
                            <g id="Group">
                                <path d="M0,0 L24,0 L24,24 L0,24 L0,0 Z" id="Shape"></path>
                                <path d="M13,17 L11,17 L11,11 L13,11 L13,17 L13,17 Z M13,9 L11,9 L11,7 L13,7 L13,9 L13,9 Z" id="Shape" fill="#FFFFFF"></path>
                            </g>
                        </g>
                    </g>
                </g>
            </g>
        </g>
    </g>
</svg>