<?xml version="1.0" encoding="UTF-8" standalone="no"?>
<svg width="34px" height="33px" viewBox="0 0 34 33" version="1.1" xmlns="http://www.w3.org/2000/svg" xmlns:xlink="http://www.w3.org/1999/xlink">
    <!-- Generator: Sketch 3.6.1 (26313) - http://www.bohemiancoding.com/sketch -->
    <title>Instagram</title>
    <desc>Created with Sketch.</desc>
    <defs></defs>
    <g id="Buttons-&amp;-components" stroke="none" stroke-width="1" fill="none" fill-rule="evenodd">
        <path d="M29.037037,29.7956667 L4.14814815,29.7956667 C3.5757037,29.7956667 3.11111111,29.3353751 3.11111111,28.76823 L3.11111111,13.3566782 L7.25925926,13.3566782 C6.71896296,14.1272558 6.53644444,15.5646398 6.53644444,16.4770037 C6.53644444,21.9789277 11.0651852,26.4554698 16.630963,26.4554698 C22.1977778,26.4554698 26.7265185,21.9789277 26.7265185,16.4770037 C26.7265185,15.5646398 26.5958519,14.148832 25.9259259,13.3566782 L30.0740741,13.3566782 L30.0740741,28.76823 C30.0740741,29.3353751 29.6094815,29.7956667 29.037037,29.7956667 M16.630963,10.1695693 C20.1558519,10.1695693 23.0128889,12.993993 23.0128889,16.4770037 C23.0128889,19.9610418 20.1558519,22.7854656 16.630963,22.7854656 C13.1071111,22.7854656 10.2500741,19.9610418 10.2500741,16.4770037 C10.2500741,12.993993 13.1071111,10.1695693 16.630963,10.1695693 M24.8888889,4.10974714 L28,4.10974714 C28.5724444,4.10974714 29.037037,4.57003882 29.037037,5.13718392 L29.037037,8.21949427 C29.037037,8.78663938 28.5724444,9.24693106 28,9.24693106 L24.8888889,9.24693106 C24.3164444,9.24693106 23.8518519,8.78663938 23.8518519,8.21949427 L23.8518519,5.13718392 C23.8518519,4.57003882 24.3164444,4.10974714 24.8888889,4.10974714 M29.2402963,0 L3.94488889,0 C1.76607407,0 0,1.7456151 0,3.8991226 L0,28.9788545 C0,31.132362 1.76607407,32.8779771 3.94488889,32.8779771 L29.2402963,32.8779771 C31.4191111,32.8779771 33.1851852,31.132362 33.1851852,28.9788545 L33.1851852,3.8991226 C33.1851852,1.7456151 31.4191111,0 29.2402963,0" id="Instagram" fill="#FFFFFF"></path>
    </g>
</svg>