<?xml version="1.0" encoding="UTF-8" standalone="no"?>
<svg width="19px" height="21px" viewBox="0 0 19 21" version="1.1" xmlns="http://www.w3.org/2000/svg" xmlns:xlink="http://www.w3.org/1999/xlink">
    <!-- Generator: Sketch 3.6.1 (26313) - http://www.bohemiancoding.com/sketch -->
    <title>ic_account_balance_black_24px (1)</title>
    <desc>Created with Sketch.</desc>
    <defs></defs>
    <g id="Popup" stroke="none" stroke-width="1" fill="none" fill-rule="evenodd">
        <g id="5" transform="translate(-583.000000, -317.000000)">
            <g id="Group-23" transform="translate(569.000000, 304.000000)">
                <g id="ic_account_balance_black_24px-(1)" transform="translate(12.000000, 12.000000)">
                    <g id="Group">
                        <path d="M0,0 L24,0 L24,24 L0,24 L0,0 Z" id="Shape"></path>
                        <path d="M4,10 L4,17 L7,17 L7,10 L4,10 L4,10 Z M10,10 L10,17 L13,17 L13,10 L10,10 L10,10 Z M2,22 L21,22 L21,19 L2,19 L2,22 L2,22 Z M16,10 L16,17 L19,17 L19,10 L16,10 L16,10 Z M11.5,1 L2,6 L2,8 L21,8 L21,6 L11.5,1 L11.5,1 Z" id="Shape" fill="#FFFFFF"></path>
                    </g>
                </g>
            </g>
        </g>
    </g>
</svg>