<?xml version="1.0" encoding="UTF-8" standalone="no"?>
<svg width="40px" height="33px" viewBox="0 0 40 33" version="1.1" xmlns="http://www.w3.org/2000/svg" xmlns:xlink="http://www.w3.org/1999/xlink">
    <!-- Generator: Sketch 3.6.1 (26313) - http://www.bohemiancoding.com/sketch -->
    <title>Fill 4</title>
    <desc>Created with Sketch.</desc>
    <defs></defs>
    <g id="Buttons-&amp;-components" stroke="none" stroke-width="1" fill="none" fill-rule="evenodd">
        <path d="M38.2291348,0.600038696 C36.6693617,1.53805413 34.945844,2.22024717 33.1037163,2.58630197 C31.6363121,0.994171566 29.5391206,0 27.217305,0 C22.7668085,0 19.1549787,3.66886745 19.1549787,8.193596 C19.1549787,8.83627176 19.2242553,9.45918888 19.3628085,10.0592276 C12.659773,9.71709113 6.7177305,6.4589954 2.73747518,1.49541706 C2.04260993,2.71005345 1.64584397,4.11915646 1.64584397,5.61977316 C1.64584397,8.4608576 3.06916312,10.9691649 5.23353191,12.4396237 C3.91412766,12.3990665 2.66819858,12.0267721 1.57866667,11.4173741 L1.57866667,11.5182471 C1.57866667,15.4886938 4.3591773,18.8019058 8.05182979,19.5516942 C7.37480851,19.7440809 6.66209929,19.8407943 5.92629787,19.8407943 C5.4067234,19.8407943 4.89974468,19.7908777 4.40746099,19.6952043 C5.43506383,22.9491403 8.41080851,25.3191372 11.9418156,25.3825728 C9.18229787,27.5809815 5.7027234,28.8923312 1.92504965,28.8923312 C1.2742695,28.8923312 0.630836879,28.8538539 0,28.778979 C3.56984397,31.1000992 7.81146099,32.4572058 12.363773,32.4572058 C27.2015603,32.4572058 35.3121702,19.9739051 35.3121702,9.1451305 C35.3121702,8.78947498 35.3048227,8.43277953 35.2911773,8.08336358 C36.8677447,6.92800311 38.2354326,5.4856224 39.3134184,3.8425355 C37.8691064,4.49457062 36.3135319,4.93446034 34.682383,5.13204674 C36.3481702,4.11915646 37.6266383,2.51350698 38.2291348,0.600038696" id="Fill-4" fill="#FFFFFF"></path>
    </g>
</svg>