<?xml version="1.0" encoding="UTF-8" standalone="no"?>
<svg width="47px" height="35px" viewBox="0 0 47 35" version="1.1" xmlns="http://www.w3.org/2000/svg" xmlns:xlink="http://www.w3.org/1999/xlink">
    <!-- Generator: Sketch 3.6.1 (26313) - http://www.bohemiancoding.com/sketch -->
    <title>Group 2</title>
    <desc>Created with Sketch.</desc>
    <defs></defs>
    <g id="Buttons-&amp;-components" stroke="none" stroke-width="1" fill="none" fill-rule="evenodd">
        <g id="Group-2" fill="#FFFFFF">
            <path d="M39.7405182,30.2715911 C36.1612227,32.9017575 31.7221892,34.4413282 26.4593071,34.8903034 L19.726032,34.8903034 C14.4253857,34.4413282 9.9935837,32.9017575 6.4726754,30.2715911 C2.15791557,27.0993111 0,22.9619469 0,17.8592331 C0,12.8255107 2.15791557,8.7560765 6.4726754,5.58485793 C10.7186026,2.34438256 16.2857409,0.758640606 23.1060611,0.758640606 C29.8575488,0.758640606 35.424687,2.34438256 39.7405182,5.58485793 C43.9856419,8.7560765 46.1435575,12.8255107 46.1435575,17.8592331 C46.1435575,22.9619469 43.9856419,27.0993111 39.7405182,30.2715911 Z M33.2678428,14.3430572 C32.7801223,14.4791827 31.4581077,15.4455937 29.1614556,17.3080975 C26.7255313,19.238266 25.4723493,20.4793161 25.2639767,21.1005045 L25.1249723,22.8236986 L25.0550684,23.8588358 L25.3336128,26.4778574 L29.6486405,26.5471142 L29.5787365,27.8568903 L22.5497758,27.8568903 L16.2857409,27.9264125 L16.4946492,26.6845664 L18.5124891,26.616371 C19.5570306,26.5471142 20.1837555,26.409662 20.3923959,26.2010955 C20.5314003,26.0649701 20.6007686,25.2370727 20.6007686,23.7885175 L20.6007686,22.8937515 L20.5314003,21.1005045 C20.3923959,20.6865558 19.2784862,19.1700706 17.1213741,16.5489262 C14.8943581,13.8598517 13.4322678,12.2733137 12.7359068,11.7211168 L8.69915575,11.1697159 L8.69915575,9.9968612 C8.90859971,9.86073576 11.1358836,9.86073576 15.2422707,9.92893116 C18.0952082,9.86073576 20.462032,9.86073576 22.3414032,9.9968612 L22.2018632,10.9630069 L17.9562038,11.3782823 C19.2784862,13.3084508 21.2971295,15.9967292 24.0115983,19.3757182 C27.5608967,16.6866438 29.4397322,14.9623882 29.5091004,14.2045436 L25.8907016,13.6523467 L25.6118894,12.411562 L31.6675517,12.411562 L37.3734265,12.4805534 L36.5385968,13.6523467 L33.2678428,14.3430572 Z" id="Combined-Shape"></path>
        </g>
    </g>
</svg>