<?xml version="1.0" encoding="UTF-8" standalone="no"?>
<svg width="34px" height="33px" viewBox="0 0 34 33" version="1.1" xmlns="http://www.w3.org/2000/svg" xmlns:xlink="http://www.w3.org/1999/xlink">
    <!-- Generator: Sketch 3.6.1 (26313) - http://www.bohemiancoding.com/sketch -->
    <title>Amazon</title>
    <desc>Created with Sketch.</desc>
    <defs></defs>
    <g id="Buttons-&amp;-components" stroke="none" stroke-width="1" fill="none" fill-rule="evenodd">
        <path d="M28.3795035,26.6214915 C28.2136558,26.6195575 28.0439057,26.6582374 27.8858626,26.7317294 C27.708308,26.8013533 27.5268511,26.8825813 27.3551499,26.9541392 L27.1034516,27.0585751 L26.7756584,27.1881531 L26.7756584,27.1920211 C23.2148102,28.6231801 19.4744563,29.4625355 16.0131167,29.5360274 C15.886292,29.5398954 15.7575161,29.5398954 15.6345937,29.5398954 C10.190886,29.5437634 5.75006932,27.0411692 1.27022962,24.5753209 C1.11413765,24.4940929 0.952192224,24.451545 0.796100249,24.451545 C0.59513183,24.451545 0.388309962,24.5269709 0.238071436,24.6662188 C0.0878329093,24.8074007 -0.00191997664,25.0104706 3.1173056e-05,25.2174084 C-0.00191997664,25.4862342 0.14441625,25.7337861 0.349286968,25.894308 C4.55401456,29.5128194 9.16263014,32.8741091 15.3614327,32.8779771 C15.482404,32.8779771 15.6053264,32.8741091 15.7282489,32.8721751 C19.6715224,32.7851452 24.1298995,31.4642241 27.591239,29.3097496 L27.6127017,29.2962116 C28.0653684,29.0273858 28.5180351,28.721814 28.9453369,28.3833642 C29.2106933,28.1880304 29.3941013,27.8824586 29.3941013,27.5652828 C29.3823944,27.0024892 28.9004605,26.6214915 28.3795035,26.6214915 Z M33.1812829,24.6217368 L33.1812829,24.6198028 C33.1656737,24.2774851 33.0934811,24.0163953 32.9490961,23.7997874 L32.9334869,23.7785134 L32.9159265,23.7572394 C32.7695903,23.5986516 32.6291075,23.5386976 32.4769178,23.4729416 C32.0223,23.2988818 31.3608602,23.2060498 30.5647911,23.2041158 C29.9931043,23.2041158 29.3628829,23.2582678 28.7287593,23.3955817 L28.7268081,23.3530337 L28.0887822,23.5638396 L28.0770753,23.5696416 L27.7161126,23.6856815 L27.7161126,23.7011535 C27.2927131,23.8752134 26.9083366,24.0918212 26.5512762,24.349043 C26.3288452,24.5134329 26.1454371,24.7319748 26.1356813,25.0665565 C26.1298279,25.2483524 26.2234831,25.4572243 26.3776239,25.5810002 C26.5317647,25.7047761 26.7112705,25.7473241 26.8693136,25.7473241 C26.9063855,25.7473241 26.9415062,25.7453901 26.9727246,25.7395881 L27.003943,25.7376541 L27.0273567,25.7337861 C27.3395407,25.6680301 27.7941586,25.6235481 28.3268224,25.5500562 C28.7833915,25.4997722 29.2672766,25.4630263 29.6867738,25.4630263 C29.9833485,25.4610923 30.250656,25.4823662 30.4340641,25.5210462 C30.5257682,25.5403862 30.5940584,25.5635942 30.6311302,25.5829342 C30.6447883,25.5868022 30.654544,25.5926042 30.6603975,25.5964722 C30.6682021,25.6216141 30.679909,25.6873701 30.6779578,25.778268 C30.6818601,26.1263878 30.5335727,26.7723433 30.328702,27.4028269 C30.1296848,28.0333105 29.8877422,28.665728 29.7277479,29.0854057 C29.6887249,29.1821057 29.66336,29.2884756 29.66336,29.4045155 C29.6594577,29.5727734 29.7296991,29.7777773 29.8779865,29.9131572 C30.0223715,30.0485371 30.2096819,30.102689 30.3657739,30.102689 L30.3735785,30.102689 C30.6077164,30.100755 30.8067337,30.0079231 30.9784349,29.8744772 C32.5978891,28.4317142 33.1617714,26.1263878 33.1851852,24.8286747 L33.1812829,24.6217368 Z M17.5623296,17.7811836 C17.0491772,18.7965329 16.1692087,19.4502244 15.2170476,19.6707003 C15.0726626,19.6707003 14.8521827,19.7422582 14.6317027,19.7422582 C13.0220042,19.7422582 12.0698432,18.5083671 12.0698432,16.6942764 C12.0698432,14.36961 13.4610129,13.2827027 15.2170476,12.7721271 C16.1692087,12.5555193 17.2696571,12.4820273 18.3681544,12.4820273 L18.3681544,13.3542607 C18.3681544,15.0233015 18.4403469,16.3287506 17.5623296,17.7811836 Z M18.3681544,9.14587963 C17.4159934,9.21743758 16.3155449,9.28899553 15.2170476,9.43211143 C13.5332055,9.65258727 11.8493633,9.94268707 10.4601447,10.5963786 C7.74999776,11.6852199 5.9178682,14.0079522 5.9178682,17.4175919 C5.9178682,21.7033329 8.70020766,23.8790814 12.2181306,23.8790814 C13.3888204,23.8790814 14.3409814,23.7320975 15.2170476,23.5174236 C16.6121197,23.0803399 17.7808583,22.2815985 19.1720281,20.8291655 C19.9778529,21.9180067 20.200284,22.4285824 21.5895025,23.5889816 C21.9563187,23.7320975 22.3231348,23.7320975 22.6138561,23.5174236 C23.4938247,22.7902401 25.0332818,21.482857 25.8371554,20.7576075 C26.2039716,20.4675077 26.131779,20.030424 25.909348,19.6707003 C25.1054743,18.653417 24.2976983,17.7811836 24.2976983,15.822043 L24.2976983,9.28899553 C24.2976983,6.53111345 24.5201294,3.98983922 22.4694711,2.10419053 C20.7856289,0.582133594 18.1476745,0 16.0970162,0 L15.2170476,0 C11.4844983,0.21467385 7.531469,1.81215674 6.64954933,6.38606355 C6.50321311,6.96819714 6.94417294,7.18480499 7.23684539,7.25636294 L11.3381621,7.76500459 C11.7771707,7.69151264 11.9976506,7.32792089 12.0698432,6.96819714 C12.4347082,5.37071426 13.7536854,4.57197281 15.2170476,4.42498892 L15.5116712,4.42498892 C16.3916398,4.42498892 17.3438008,4.78858066 17.855002,5.51576416 C18.4403469,6.38606355 18.3681544,7.54839674 18.3681544,8.56568003 L18.3681544,9.14587963 L18.3681544,9.14587963 Z" id="Amazon" fill="#FFFFFF"></path>
    </g>
</svg>