<?xml version="1.0" encoding="UTF-8" standalone="no"?>
<svg width="25px" height="26px" viewBox="0 0 25 26" version="1.1" xmlns="http://www.w3.org/2000/svg" xmlns:xlink="http://www.w3.org/1999/xlink">
    <!-- Generator: Sketch 3.8.3 (29802) - http://www.bohemiancoding.com/sketch -->
    <title>Group 2</title>
    <desc>Created with Sketch.</desc>
    <defs>
        <polygon id="path-1" points="0.0146717471 25.2085176 17.7187251 25.2085176 17.7187251 0.00849762178 0.0146717471 0.00849762178"></polygon>
    </defs>
    <g id="WorldPay-Embedded-Widget" stroke="none" stroke-width="1" fill="none" fill-rule="evenodd">
        <g id="Small-2" transform="translate(-19.000000, -215.000000)">
            <g id="Group-2" transform="translate(19.000000, 215.000000)">
                <g id="Page-1-Copy-14">
                    <polygon id="Fill-1" fill="#CBCACC" points="0 24.7611621 4.72091763 24.7611621 4.72091763 6.37955947 0 6.37955947"></polygon>
                    <g id="Group-7" transform="translate(0.000000, 0.046207)">
                        <g id="Group-4" transform="translate(6.476031, 0.000000)">
                            <mask id="mask-2" fill="white">
                                <use xlink:href="#path-1"></use>
                            </mask>
                            <g id="Clip-3"></g>
                            <path d="M11.9873834,19.6738755 C12.6885362,18.6705655 13.0406363,17.3671047 13.0406363,15.7698909 C13.0406363,13.5335509 12.4779835,11.9347512 11.3542017,10.9750777 C10.664967,10.3929305 9.8635718,10.1010913 8.95170312,10.1010913 C7.56109795,10.1010913 6.5424564,10.6311263 5.88973779,11.6865485 C5.24175377,12.7433376 4.91463258,14.0537431 4.91463258,15.6191319 C4.91463258,17.3051497 5.24676045,18.6555279 5.90622718,19.6655638 C6.56743537,20.6789353 7.5692066,21.1838712 8.91845224,21.1838712 C10.2623647,21.1838712 11.2877544,20.6806851 11.9873834,19.6738755 M10.8670845,6.65665631 C11.7219205,7.14327366 12.4076723,7.81613876 12.9978075,8.67836849 L12.9978075,0.00849762178 L17.7187251,0.00849762178 L17.7187251,24.7149775 L13.1944829,24.7149775 L13.1944829,22.104939 C12.4076723,23.1887412 11.6992272,23.9787904 10.8344322,24.4703838 C9.9626714,24.9602821 8.86370529,25.2085395 7.57301603,25.2085395 C5.44768067,25.2085395 3.64832366,24.3445599 2.19747508,22.6164368 C0.744830617,20.8902822 0.0146717471,18.6740105 0.0146717471,15.9711762 C0.0146717471,12.8525928 0.726382093,10.3979612 2.15573461,8.60941417 C3.58497829,6.82283567 5.5162504,5.92856214 7.90900774,5.92856214 C9.0091711,5.92856214 10.0107246,6.17025769 10.8670845,6.65665631" id="Fill-2" fill="#CBCACB" mask="url(#mask-2)"></path>
                        </g>
                        <polygon id="Fill-5" fill="#CBCACC" points="0 2.77561637 15.3430231 2.77561637 15.3430231 0.00847574888 0 0.00847574888"></polygon>
                    </g>
                </g>
            </g>
        </g>
    </g>
</svg>