<?xml version="1.0" encoding="UTF-8" standalone="no"?>
<svg width="46px" height="29px" viewBox="0 0 46 29" version="1.1" xmlns="http://www.w3.org/2000/svg" xmlns:xlink="http://www.w3.org/1999/xlink">
    <!-- Generator: Sketch 3.6.1 (26313) - http://www.bohemiancoding.com/sketch -->
    <title>Group 4</title>
    <desc>Created with Sketch.</desc>
    <defs></defs>
    <g id="Buttons-&amp;-components" stroke="none" stroke-width="1" fill="none" fill-rule="evenodd">
        <g id="Group-4" fill="#FFFFFF">
            <path d="M40.6075006,11.8206093 L40.6075006,6.83601504 L37.0202655,6.83601504 L37.0202655,11.8206093 L31.8546471,11.8206093 L31.8546471,15.3810338 L37.0202655,15.3810338 L37.0202655,20.5080451 L40.6075006,20.5080451 L40.6075006,15.3810338 L45.6296296,15.3810338 L45.6296296,11.8206093 L40.6075006,11.8206093 L40.6075006,11.8206093 Z M14.4924295,11.5357754 L14.4924295,17.2324546 C14.4924295,17.2324546 20.0603923,17.2250489 22.3275248,17.2250489 C21.0998295,20.9180636 19.1908465,22.9291338 14.4924295,22.9291338 C9.73762124,22.9291338 6.02655486,19.1033864 6.02655486,14.384115 C6.02655486,9.66484351 9.73762124,5.83909618 14.4924295,5.83909618 C17.0063638,5.83909618 18.6299464,6.71609994 20.1192229,7.93846488 C21.3113329,6.75526461 21.2117512,6.58664291 24.2446867,3.74385757 C21.6700564,1.41790345 18.2481211,0 14.4924295,0 C6.48844724,0 0,6.43995342 0,14.384115 C0,22.3281341 6.48844724,28.76823 14.4924295,28.76823 C26.4561454,28.76823 29.3803159,18.4287572 28.4109015,11.5357754 L14.4924295,11.5357754 L14.4924295,11.5357754 Z" id="GooglePlus"></path>
        </g>
    </g>
</svg>