<?xml version="1.0" encoding="UTF-8" standalone="no"?>
<svg width="35px" height="31px" viewBox="0 0 35 31" version="1.1" xmlns="http://www.w3.org/2000/svg" xmlns:xlink="http://www.w3.org/1999/xlink">
    <!-- Generator: Sketch 3.6.1 (26313) - http://www.bohemiancoding.com/sketch -->
    <title>Group 7</title>
    <desc>Created with Sketch.</desc>
    <defs></defs>
    <g id="Buttons-&amp;-components" stroke="none" stroke-width="1" fill="none" fill-rule="evenodd">
        <g id="Group-7" transform="translate(-1.000000, -1.000000)" fill="#FFFFFF">
            <path d="M2.67841844,31.6274915 L9.28291844,31.6274915 L9.28291844,11.3194723 L2.67841844,11.3194723 L2.67841844,31.6274915 Z" id="Fill-5"></path>
            <path d="M27.3247482,11.1242628 C23.541695,11.1242628 21.1712021,13.1137945 20.7331064,14.5070014 L20.7331064,11.3194723 L13.3148688,11.3194723 C13.4103865,13.0121786 13.3148688,31.6274915 13.3148688,31.6274915 L20.7331064,31.6274915 L20.7331064,20.6378251 C20.7331064,20.0272386 20.7027979,19.416652 20.8947518,18.9780994 C21.4044858,17.7569263 22.5001844,16.4902935 24.4702376,16.4902935 C27.0455426,16.4902935 28.2174716,18.3675128 28.2174716,21.118272 L28.2174716,31.6274915 L35.7055106,31.6274915 L35.7055106,20.3356516 C35.7055106,14.0452732 32.0179752,11.1242628 27.3247482,11.1242628" id="Fill-6"></path>
            <path d="M5.85805674,1.73370923 C3.41959929,1.73370923 1.8242695,3.25349033 1.8242695,5.25995793 C1.8242695,7.22720537 3.3736773,8.77996706 5.76437589,8.77996706 L5.81213475,8.77996706 C8.2946773,8.77996706 9.84041135,7.22185717 9.84041135,5.25371836 C9.79265248,3.24992486 8.2946773,1.73370923 5.85805674,1.73370923" id="Fill-7"></path>
        </g>
    </g>
</svg>