<?xml version="1.0" encoding="UTF-8" standalone="no"?>
<svg width="29px" height="34px" viewBox="0 0 29 34" version="1.1" xmlns="http://www.w3.org/2000/svg" xmlns:xlink="http://www.w3.org/1999/xlink">
    <!-- Generator: Sketch 3.6.1 (26313) - http://www.bohemiancoding.com/sketch -->
    <title>Paypal</title>
    <desc>Created with Sketch.</desc>
    <defs></defs>
    <g id="Buttons-&amp;-components" stroke="none" stroke-width="1" fill="none" fill-rule="evenodd">
        <path d="M24.69362,2.56009414 C23.1086713,0.768134339 20.2446412,0 16.5795811,0 L5.94481066,0 C5.19511496,0 4.55771319,0.541089106 4.44007192,1.2742118 L0.0114129981,29.1371179 C-0.0762832182,29.6866947 0.352572669,30.1842845 0.914042347,30.1842845 L7.47949444,30.1842845 L9.1286111,19.8081051 L9.07727673,20.1327586 C9.19491799,19.3996359 9.82804189,18.8585468 10.5766681,18.8585468 L13.6963006,18.8585468 C19.82648,18.8585468 24.6251742,16.3886342 26.0272442,9.24413605 C26.0689534,9.03194424 26.1363297,8.62559693 26.1363297,8.62559693 C26.5341711,5.98168702 26.1331213,4.1876053 24.69362,2.56009414 Z M27.79828,9.97885018 C26.2732214,17.0130086 21.4114287,20.7359138 13.6963006,20.7359138 L10.8985774,20.7359138 L8.81204914,33.9512195 L13.3497936,33.9512195 C14.0053763,33.9512195 14.5625681,33.4780318 14.6652369,32.8361516 L14.7187102,32.5560584 L15.762509,25.9972096 L15.8298854,25.6354226 C15.9314847,24.9935424 16.4897459,24.5203547 17.1442592,24.5203547 L17.9730954,24.5203547 C23.3343287,24.5203547 27.5330524,22.3591811 28.75973,16.1101324 C29.2516843,13.6020253 29.0153323,11.4992045 27.79828,9.97885018 Z" id="Paypal" fill="#FFFFFF"></path>
    </g>
</svg>