<?xml version="1.0" encoding="UTF-8" standalone="no"?>
<svg width="20px" height="20px" viewBox="0 0 20 20" version="1.1" xmlns="http://www.w3.org/2000/svg" xmlns:xlink="http://www.w3.org/1999/xlink">
    <!-- Generator: Sketch 3.6.1 (26313) - http://www.bohemiancoding.com/sketch -->
    <title>Group</title>
    <desc>Created with Sketch.</desc>
    <defs></defs>
    <g id="Popup" stroke="none" stroke-width="1" fill="none" fill-rule="evenodd">
        <g id="3" transform="translate(-648.000000, -399.000000)">
            <g id="Group-6" transform="translate(569.000000, 384.000000)">
                <g id="ic_sms_black_24px" transform="translate(77.000000, 12.000000)">
                    <g id="Group">
                        <path d="M20,3 L4,3 C2.9,3 2.01,3.9 2.01,5 L2,23 L6,19 L20,19 C21.1,19 22,18.1 22,17 L22,5 C22,3.9 21.1,3 20,3 L20,3 Z M9,12 L7,12 L7,10 L9,10 L9,12 L9,12 Z M13,12 L11,12 L11,10 L13,10 L13,12 L13,12 Z M17,12 L15,12 L15,10 L17,10 L17,12 L17,12 Z" id="Shape" fill="#FFFFFF"></path>
                        <path d="M0,0 L24,0 L24,24 L0,24 L0,0 Z" id="Shape"></path>
                    </g>
                </g>
            </g>
        </g>
    </g>
</svg>