<?xml version="1.0" encoding="UTF-8" standalone="no"?>
<svg width="43px" height="27px" viewBox="0 0 43 27" version="1.1" xmlns="http://www.w3.org/2000/svg" xmlns:xlink="http://www.w3.org/1999/xlink">
    <!-- Generator: Sketch 3.6.1 (26313) - http://www.bohemiancoding.com/sketch -->
    <title>ic_people_black_24px</title>
    <desc>Created with Sketch.</desc>
    <defs></defs>
    <g id="Buttons-&amp;-components" stroke="none" stroke-width="1" fill="none" fill-rule="evenodd">
        <g id="ic_people_black_24px" transform="translate(-1.000000, -9.000000)">
            <g id="Group">
                <path d="M0,0 L45.3333333,0 L45.3333333,44.9136651 L0,44.9136651 L0,0 Z" id="Shape"></path>
                <path d="M30.2222222,20.5854299 C33.3577778,20.5854299 35.87,18.0777502 35.87,14.9712217 C35.87,11.8646932 33.3577778,9.35701357 30.2222222,9.35701357 C27.0866667,9.35701357 24.5555556,11.8646932 24.5555556,14.9712217 C24.5555556,18.0777502 27.0866667,20.5854299 30.2222222,20.5854299 L30.2222222,20.5854299 Z M15.1111111,20.5854299 C18.2466667,20.5854299 20.7588889,18.0777502 20.7588889,14.9712217 C20.7588889,11.8646932 18.2466667,9.35701357 15.1111111,9.35701357 C11.9755556,9.35701357 9.44444444,11.8646932 9.44444444,14.9712217 C9.44444444,18.0777502 11.9755556,20.5854299 15.1111111,20.5854299 L15.1111111,20.5854299 Z M15.1111111,24.3282353 C10.71,24.3282353 1.88888889,26.5177765 1.88888889,30.8781448 L1.88888889,35.5566516 L28.3333333,35.5566516 L28.3333333,30.8781448 C28.3333333,26.5177765 19.5122222,24.3282353 15.1111111,24.3282353 L15.1111111,24.3282353 Z M30.2222222,24.3282353 C29.6744444,24.3282353 29.0511111,24.3656633 28.39,24.4218054 C30.5811111,25.9937837 32.1111111,28.1084688 32.1111111,30.8781448 L32.1111111,35.5566516 L43.4444444,35.5566516 L43.4444444,30.8781448 C43.4444444,26.5177765 34.6233333,24.3282353 30.2222222,24.3282353 L30.2222222,24.3282353 Z" id="Shape" fill="#FFFFFF"></path>
            </g>
        </g>
    </g>
</svg>