<?xml version="1.0" encoding="UTF-8" standalone="no"?>
<svg width="46px" height="26px" viewBox="0 0 46 26" version="1.1" xmlns="http://www.w3.org/2000/svg" xmlns:xlink="http://www.w3.org/1999/xlink">
    <!-- Generator: Sketch 3.6.1 (26313) - http://www.bohemiancoding.com/sketch -->
    <title>Soundcloud</title>
    <desc>Created with Sketch.</desc>
    <defs></defs>
    <g id="Buttons-&amp;-components" stroke="none" stroke-width="1" fill="none" fill-rule="evenodd">
        <path d="M0,20.7282257 C0,21.2934415 0.203947954,21.7208061 0.611757407,22.0104933 C1.01961009,22.300137 1.45556073,22.4025482 1.91965255,22.3178136 C2.35560319,22.2330356 2.66148189,22.0775947 2.83733189,21.8515345 C3.01309543,21.6254743 3.10102043,21.251009 3.10102043,20.7282257 L3.10102043,14.5818193 C3.10102043,14.1437706 2.94985341,13.7728668 2.64747614,13.4691078 C2.3451421,13.1653054 1.97597815,13.013426 1.53998429,13.013426 C1.11808263,13.013426 0.755964777,13.1653054 0.453587512,13.4691078 C0.151210246,13.7728668 0,14.1437706 0,14.5818193 L0,20.7282257 L0,20.7282257 Z M4.85186909,23.3563443 C4.85186909,23.7661627 4.99603323,24.0734396 5.28431829,24.2783487 C5.57264657,24.4832579 5.94181053,24.5856691 6.39181014,24.5856691 C6.85590197,24.5856691 7.2320688,24.4832145 7.52039708,24.2783487 C7.80868214,24.073483 7.95284629,23.7661627 7.95284629,23.3563443 L7.95284629,9.02885906 C7.95284629,8.60496897 7.80163604,8.24110101 7.499302,7.93734206 C7.19692474,7.63358312 6.82776078,7.48166021 6.39181014,7.48166021 C5.96990848,7.48166021 5.60774741,7.63358312 5.30541337,7.93734206 C5.00303611,8.24114444 4.85186909,8.60496897 4.85186909,9.02885906 L4.85186909,23.3563443 L4.85186909,23.3563443 Z M9.68264309,24.0345685 C9.68264309,24.4443434 9.83030867,24.7516637 10.1256398,24.9565729 C10.420971,25.1614386 10.8006825,25.2638932 11.2648175,25.2638932 C11.7148172,25.2638932 12.0839811,25.1614386 12.3722662,24.9565729 C12.6605945,24.7516637 12.8047586,24.4443434 12.8047586,24.0345685 L12.8047586,10.957559 C12.8047586,10.5195537 12.6535484,10.1450885 12.3512143,9.83425025 C12.048837,9.52341199 11.6867192,9.36801457 11.2648175,9.36801457 C10.8288237,9.36801457 10.4561583,9.52341199 10.1467781,9.83425025 C9.837398,10.1450885 9.68268632,10.5195537 9.68268632,10.957559 L9.68268632,24.0345685 L9.68264309,24.0345685 Z M14.5345122,24.098152 C14.5345122,24.8753128 15.0548431,25.2638932 16.0955483,25.2638932 C17.1362103,25.2638932 17.6565412,24.8753128 17.6565412,24.098152 L17.6565412,2.90364716 C17.6565412,1.71675489 17.2979248,1.04561005 16.580692,0.890169203 C16.1166002,0.777117367 15.6595112,0.911363708 15.2095116,1.2928648 C14.7594688,1.67436588 14.5344689,2.21126438 14.5344689,2.90364716 L14.5344689,24.098152 L14.5345122,24.098152 Z M19.4708048,24.7127926 L19.4708048,1.65317138 C19.4708048,0.91844302 19.6887585,0.480437731 20.1247524,0.339112078 C21.066985,0.113051836 22.0022148,0 22.9303984,0 C25.0820537,0 27.0861298,0.508668116 28.9424539,1.52600435 C30.7988212,2.54334058 32.3001167,3.93158065 33.4462541,5.69072455 C34.5924347,7.44991188 35.2569298,9.38916565 35.4397394,11.5086596 C36.2975917,11.1412737 37.2116832,10.9576024 38.182057,10.9576024 C40.1509458,10.9576024 41.835051,11.6570211 43.2343293,13.0558584 C44.6336509,14.4547392 45.3333333,16.1361409 45.3333333,18.100194 C45.3333333,20.0783623 44.6336509,21.7668433 43.2343293,23.1656807 C41.835051,24.564518 40.1579919,25.2639366 38.2031521,25.2639366 L19.8504299,25.2427421 C19.7238161,25.2003531 19.6288883,25.122611 19.565603,25.0096026 C19.5023178,24.8965942 19.4708048,24.7975707 19.4708048,24.7127926 L19.4708048,24.7127926 L19.4708048,24.7127926 Z" id="Soundcloud" fill="#FFFFFF"></path>
    </g>
</svg>