<?xml version="1.0" encoding="UTF-8" standalone="no"?>
<svg width="22px" height="22px" viewBox="0 0 22 22" version="1.1" xmlns="http://www.w3.org/2000/svg" xmlns:xlink="http://www.w3.org/1999/xlink">
    <!-- Generator: sketchtool 3.6.1 (26313) - http://www.bohemiancoding.com/sketch -->
    <title>CBD7CE22-7931-403C-A7EC-3034E7E55DD2</title>
    <desc>Created with sketchtool.</desc>
    <defs></defs>
    <g id="Popup" stroke="none" stroke-width="1" fill="none" fill-rule="evenodd">
        <g id="3" transform="translate(-777.000000, -316.000000)" fill="#FFFFFF">
            <path d="M794.49,325.79 C790.97,323.7 785.085,323.48 781.73,324.525 C781.18,324.69 780.63,324.36 780.465,323.865 C780.3,323.315 780.63,322.765 781.125,322.6 C785.03,321.445 791.465,321.665 795.535,324.085 C796.03,324.36 796.195,325.02 795.92,325.515 C795.645,325.9 794.985,326.065 794.49,325.79 M794.38,328.87 C794.105,329.255 793.61,329.42 793.225,329.145 C790.255,327.33 785.745,326.78 782.28,327.88 C781.84,327.99 781.345,327.77 781.235,327.33 C781.125,326.89 781.345,326.395 781.785,326.285 C785.8,325.075 790.75,325.68 794.16,327.77 C794.49,327.935 794.655,328.485 794.38,328.87 M793.06,331.895 C792.84,332.225 792.455,332.335 792.125,332.115 C789.54,330.52 786.295,330.19 782.445,331.07 C782.06,331.18 781.73,330.905 781.62,330.575 C781.51,330.19 781.785,329.86 782.115,329.75 C786.295,328.815 789.925,329.2 792.785,330.96 C793.17,331.125 793.225,331.565 793.06,331.895 M788,316 C781.95,316 777,320.95 777,327 C777,333.05 781.95,338 788,338 C794.05,338 799,333.05 799,327 C799,320.95 794.105,316 788,316" id="Spotify"></path>
        </g>
    </g>
</svg>